<mxfile host="app.diagrams.net" modified="2023-02-02T06:47:53.667Z" agent="5.0 (Windows NT 10.0; Win64; x64) AppleWebKit/537.36 (KHTML, like Gecko) Chrome/109.0.0.0 Safari/537.36" etag="iWQ9N7Ipf7VkPYlm807L" version="20.8.13" type="github">
  <diagram name="第 1 页" id="Q61V24fVuo1QKx4xBF4W">
    <mxGraphModel dx="1434" dy="1925" grid="1" gridSize="10" guides="1" tooltips="1" connect="1" arrows="1" fold="1" page="1" pageScale="1" pageWidth="827" pageHeight="1169" math="0" shadow="0">
      <root>
        <mxCell id="0" />
        <mxCell id="1" parent="0" />
        <mxCell id="2C1XUlem80Z9wZlLDXfJ-1" value="测试一下&amp;nbsp; 看看github上面有没有图片&lt;br&gt;" style="rounded=0;whiteSpace=wrap;html=1;" vertex="1" parent="1">
          <mxGeometry x="270" y="-350" width="120" height="60" as="geometry" />
        </mxCell>
      </root>
    </mxGraphModel>
  </diagram>
</mxfile>
